<svg width="866" height="866" viewBox="0 0 866 866" fill="none" xmlns="http://www.w3.org/2000/svg">
<mask id="mask0_10_66" style="mask-type:luminance" maskUnits="userSpaceOnUse" x="0" y="0" width="866" height="866">
<path d="M0 -2.97626e-05H866V866H0V-2.97626e-05Z" fill="white"/>
</mask>
<g mask="url(#mask0_10_66)">
<path d="M547.254 387.979C581.912 360.899 622.971 349.178 666.998 343.789C668.951 343.55 668.847 340.693 666.883 340.575C643.877 339.198 620.942 339.952 598.184 343.58C569.646 348.128 540.93 352.537 515.379 365.482C514.146 366.107 512.291 366.264 510.827 366.072C499.783 364.625 488.759 363.058 477.553 361.494C476.273 361.315 475.729 359.763 476.621 358.828C496.165 338.531 504.985 314.838 507.22 289.039C508.853 270.184 508.521 251.014 512.564 232.541C521.924 189.769 556.916 165.14 607.916 161.403C658.905 157.667 704.148 171.449 747.27 192.461C781.593 209.186 811.916 230.055 837.726 255.777C854.358 272.353 860.442 291.143 857.751 312.39C848.557 384.99 811.104 444.611 743.859 490.057C714.597 509.833 681.792 522.377 643.185 521.109C610.259 520.029 581.083 504.596 571.51 480.695C568.59 473.408 569.575 464.632 570.431 456.666C573.078 432.045 567.708 409.718 547.139 390.421C546.422 389.749 546.48 388.584 547.254 387.979Z" fill="black"/>
<path d="M424.587 356.533C426.365 358.531 425.246 361.703 422.606 362.138C412.789 363.755 402.952 365.404 393.068 366.808C390.715 367.142 387.761 366.596 385.638 365.6C333.095 340.97 276.522 336.813 218.177 341.521C217.672 341.562 217.196 341.866 215.889 342.348C266.764 346.479 314.026 356.814 352.291 387.055C353.88 388.31 354.025 390.68 352.59 392.108C331.498 413.106 329.979 437.869 333.074 463.752C333.652 468.59 333.222 474.114 331.007 478.498C315.354 509.486 280.561 524.575 238.917 520.153C211.317 517.221 187.412 507.359 165.721 493.576C91.4919 446.407 51.7214 383.165 45.8344 304.51C44.5539 287.403 50.6889 272.036 63.3345 259.047C111.764 209.302 172.564 176.2 247.319 163.211C273.635 158.638 300.262 159.669 325.905 167.759C367.214 180.79 388.868 206.717 392.825 243.446C394.548 259.436 393.767 275.613 395.182 291.638C397.35 316.175 408.011 337.916 424.587 356.533Z" fill="black"/>
<path d="M584.599 138.016C561.851 145.142 542.334 155.215 525.736 168.855C495.619 193.605 485.598 223.92 483.943 256.793C483.026 274.995 483.027 293.331 479.882 311.318C478.1 321.508 472.194 331.73 465.59 340.814C458.659 350.346 447.462 349.963 438.374 341.453C425.047 328.976 421.877 313.802 420.504 298.41C418.903 280.452 418.836 262.409 417.123 244.46C412.478 195.782 382.968 160.087 324.985 139.629C323.166 138.988 321.398 138.255 319.632 137.527C319.143 137.326 318.744 136.991 317.632 136.298C321.623 121.068 328.885 106.46 337.842 92.3325C361.09 55.665 394.816 26.5991 440.799 6.29969C448.295 2.99042 454.427 2.69851 462.08 6.15896C523.423 33.8984 563.197 74.4443 582.358 127.411C582.667 128.266 582.989 129.126 583.161 130.001C583.636 132.41 584.033 134.828 584.599 138.016Z" fill="black"/>
<path d="M548.632 511.305C569.466 544.562 588.077 565.718 625.736 574.33C633.028 575.997 636.837 566.035 630.359 562.294C624.417 558.862 618.752 555.113 613.385 551.048C609.554 548.146 605.796 545.184 602.095 542.172C596.514 537.63 601.344 528.713 608.195 530.909C642.292 541.836 677.915 541.31 715.542 528.2C718.384 527.21 721.544 528.274 723.179 530.802C738.969 555.239 749.842 580.806 751.184 608.63C751.549 616.178 751.482 623.762 751.004 631.304C750.375 641.222 747.252 644.345 735.055 646.401C700.743 652.184 666.77 650.942 633.545 641.8C570.814 624.537 522.605 592.427 485.766 548.989C484.264 547.219 483.915 543.09 485.416 541.717C495.098 532.863 507.153 531.108 518.608 526.18C522.015 524.715 545.946 507.018 548.632 511.305Z" fill="black"/>
<path d="M415.27 535.763C419.163 539.38 419.494 545.442 416.003 549.449C385.232 584.776 347.622 614.348 297.244 632.338C259.624 645.772 220.1 650.292 179.15 645.142C175.593 644.695 172.124 643.811 168.602 643.172C160.804 641.759 156.917 637.875 156.181 631.495C153.432 607.696 156.466 584.338 165.83 561.725C170.168 551.251 175.751 541.107 181.312 530.537C183.599 526.188 188.737 524.221 193.367 525.865C224.439 536.899 253.964 538.541 282.352 532.121C292.787 529.761 298.885 543.517 290.187 549.746C289.881 549.966 289.573 550.186 289.264 550.404C279.814 557.098 287.8 571.845 298.569 567.585C327.274 556.23 334.04 528.607 351.658 504.089C355.136 499.251 367.213 503.293 371.577 507.349C380.76 515.882 405.747 526.914 415.27 535.763Z" fill="black"/>
<path d="M422.356 492.721C424.212 496.664 420.527 500.902 416.373 499.586C392.085 491.886 372.324 471.848 367.801 449.425C362.236 421.844 377.572 394.023 402.394 383.164C406.405 381.409 410.527 385.454 408.924 389.527C394.842 425.296 406.636 459.118 422.312 492.627C422.327 492.658 422.342 492.69 422.356 492.721Z" fill="black"/>
<path d="M497.474 400.523C495.085 391.52 505.624 384.677 512.857 390.544C527.107 402.101 536.117 420.911 535.525 441.065C534.847 464.102 519.772 485.068 498.558 495.303C490.504 499.189 481.949 491.051 485.457 482.825C496.81 456.193 505.093 429.238 497.474 400.523Z" fill="black"/>
<path d="M440.12 651.919C431.98 646.314 424.921 641.34 417.723 636.575C415.921 635.382 413.703 634.292 411.627 634.193C409.704 634.1 406.923 634.852 405.974 636.231C405.022 637.617 405.064 640.838 406.082 642.196C408.494 645.416 411.613 648.159 414.682 650.821C420.084 655.506 425.785 659.848 431.112 664.612C433.579 666.819 435.462 669.681 438.544 673.361C435.9 673.361 434.663 673.512 433.473 673.339C410.166 669.943 394.59 657.135 387.134 634.778C385.258 629.152 384.077 623.282 382.788 617.476C382.142 614.563 383.06 612.635 386.611 612.351C407.306 610.696 432.535 627.143 438.79 646.535C439.284 648.064 439.569 649.658 440.12 651.919Z" fill="black"/>
<path d="M475.435 669.2C479.237 665.877 483.02 662.532 486.845 659.235C493.161 653.794 499.613 648.505 505.78 642.903C508.339 640.578 510.516 637.495 507.647 633.971C504.875 630.569 501.356 631.758 498.404 633.599C491.776 637.734 485.341 642.18 478.854 646.54C477.486 647.459 476.232 648.55 474.925 649.563C474.44 649.28 473.956 648.997 473.471 648.715C475.686 643.933 477.291 638.734 480.224 634.442C491.43 618.046 508.397 612.257 527.124 610.161C530.104 609.828 531.431 611.635 531.5 614.518C532.101 639.746 508.546 667.589 483.662 670.985C481.38 671.296 479.047 671.232 476.737 671.343C476.303 670.629 475.869 669.914 475.435 669.2Z" fill="black"/>
<path d="M452.189 447.491C451.83 447.634 451.456 447.728 451.067 447.742C447.067 447.883 445.032 441.16 443.348 438.552C438.003 430.274 426.863 425.89 424.86 415.548C423.831 410.236 425.997 403.754 429.994 400.11C435.094 395.46 443.039 398.246 448.367 401.986C449.678 402.906 451.46 402.748 452.599 401.621C454.084 400.152 455.95 398.459 456.265 398.227C458.634 396.481 461.311 395.357 464.233 394.975C469.511 394.284 475.377 396.322 476.899 401.919C479.279 410.673 475.074 419.539 470.377 426.723C465.98 433.448 460.321 442.136 453.583 446.712C453.145 447.01 452.68 447.296 452.189 447.491ZM438.029 562.333C436.651 559.848 436.951 555.64 437.344 552.963C437.494 551.94 437.864 550.755 438.851 550.443C439.804 550.143 440.748 550.833 441.616 551.329C445.138 553.339 449.647 552.36 453.238 550.479C456.829 548.597 459.969 545.892 463.688 544.277C464.285 544.018 464.971 543.788 465.571 544.038C466.539 544.442 466.65 545.745 466.608 546.792C466.442 550.982 466.274 555.174 466.125 559.365C464.072 617.108 465.452 674.912 466.833 732.675C466.886 734.904 466.996 737.299 468.353 739.068C469.71 740.837 472.812 741.387 474.063 739.541C474.406 739.036 474.638 738.357 475.222 738.179C476.054 737.924 476.712 738.881 477.058 739.679C477.963 741.771 478.886 743.94 478.862 746.219C478.839 748.498 477.604 750.931 475.43 751.613C474.318 751.961 473.12 751.82 471.962 751.694C464.592 750.888 457.142 750.803 449.755 751.441C447.975 751.594 446.131 751.812 444.613 752.753C442.217 754.236 440.579 757.471 437.765 757.322C434.723 757.162 433.581 752.86 434.999 750.164C436.418 747.468 439.234 745.869 441.485 743.816C449.336 736.655 449.823 724.674 449.749 714.048C449.61 693.961 449.47 673.874 449.33 653.787C449.191 633.7 449.051 613.613 448.912 593.526C448.878 588.705 448.843 583.884 448.811 579.063C448.799 577.229 448.389 575.548 448.356 573.715C448.322 571.802 448.384 569.684 447.686 567.869" fill="black"/>
</g>
</svg>
