<svg id="Layer_1" data-name="Layer 1" xmlns="http://www.w3.org/2000/svg" viewBox="0 0 1024 1024"><defs><style>.cls-1{fill:#efeeee;}.cls-1,.cls-2{stroke:#000;stroke-miterlimit:10;}.cls-2{fill:#01fefe;}</style></defs><path class="cls-1" d="M233.3,450.55c-.8-4.74,1.46-7.92,4.66-11.29,19.75-20.78,39.24-41.8,58.83-62.74,9.64-10.3,19.24-20.64,28.95-30.87C340.62,330,355.6,314.44,370.5,298.8q17.87-18.75,35.63-37.61c5.25-5.54,10.54-11.05,15.69-16.69,2.28-2.49,4.51-3.05,7.93-2.16q42.48,11.07,85.06,21.71c17,4.29,34.06,8.3,51.05,12.65,8.27,2.11,16.37,4.84,24.63,7,6.48,1.71,13.09,2.89,19.61,4.47,25.86,6.26,51.66,12.76,77.59,18.74,5.71,1.32,7.07,5,8.21,9.59a10.12,10.12,0,0,0-.07,3q8.31,30,16.8,59.94c.36,1.25,1.54,2.28,2.34,3.41a27.77,27.77,0,0,0,.51,3.89q9.66,35.65,19.44,71.28c1.45,5.26,3.34,10.4,5,15.6-5.21,2.38-10.45,4.72-15.64,7.16-22.37,10.54-44.7,21.16-67.11,31.64-38.56,18-77.39,35.51-115.67,54.15a161.66,161.66,0,0,1-55.66,15.88c-12.15,1.2-24.21,3.17-36.32,4.75-11,1.43-21.95,2.74-32.91,4.2s-21.91,3-32.86,4.53c-10.79,1.49-21.58,3-32.37,4.47q-17.12,2.31-34.24,4.53-17.42,2.28-34.84,4.51c-4.65.48-5.21-3-6.1-6.23Q265.05,563,253.81,522.74c-.45-1.6-1.81-3-2.75-4.41.33-1.52,1.26-3.2.89-4.54q-6.54-24.15-13.47-48.19C237,460.51,235,455.57,233.3,450.55Z"/><path class="cls-2" d="M715,382.86c-.8-1.13-2-2.16-2.34-3.41q-8.5-29.94-16.8-59.94a10.12,10.12,0,0,1,.07-3q38-5.07,76.09-10.14c31.47-4.22,63-8.29,94.41-12.75a429,429,0,0,1,67.2-3.79c4.3.07,6,1.54,7.09,5.58,12.27,44.49,24.75,88.93,37,133.42.37,1.32-.51,3.91-1.61,4.57-19.75,11.82-38.84,24.77-60.25,33.74-16.07,6.73-31.63,14.66-47.44,22q-50.56,23.58-101.13,47.12c-2.86,1.34-5.63,2.86-8.44,4.29l-21.46,10Q685.09,575,632.8,599.35q-41.74,19.51-83.42,39.15c-4.93,2.32-9.71,5.65-14.9,6.57-14.77,2.63-29.72,4.29-44.61,6.27-13.41,1.79-26.85,3.44-40.26,5.25-13.74,1.85-27.45,3.89-41.19,5.71s-27.52,3.42-41.27,5.23q-25,3.3-50,6.77c-7,1-14,2-20.95,3-14.5,1.81-29,3.54-43.5,5.46q-47,6.19-93.9,12.54c-20.43,2.74-40.83,5.67-61.29,8.11-7.41.89-15,.59-22.43.86q-12.45.45-24.91,1c-2.16.09-3.24-.25-4-2.93Q27.86,635.86,9.07,569.52c-1.26-4.46-1.89-7.68,3.31-10.53,15.26-8.36,29.72-18.27,45.31-25.89,32.05-15.67,64.64-30.24,97-45.28q22.81-10.59,45.58-21.25c9.18-4.28,18.37-8.51,27.53-12.83,1.91-.91,3.68-2.12,5.51-3.19,1.74,5,3.71,10,5.18,15.05q6.93,24,13.47,48.19c.37,1.34-.56,3-.89,4.54a11.81,11.81,0,0,0-2.4.55c-15.49,7.19-30.92,14.48-46.45,21.56-2.62,1.19-2.24,2.78-1.7,4.7,6.47,23.14,13,46.26,19.4,69.41.71,2.57,1.78,3.42,4.53,3,11.33-1.59,22.71-2.85,34.06-4.41,8-1.1,15.89-2.47,23.83-3.72q17.42-2.25,34.84-4.51,17.13-2.24,34.24-4.53c10.79-1.46,21.58-3,32.37-4.47,11-1.51,21.9-3.08,32.86-4.53s21.94-2.77,32.91-4.2c12.11-1.58,24.17-3.55,36.32-4.75a161.66,161.66,0,0,0,55.66-15.88c38.28-18.64,77.11-36.12,115.67-54.15,22.41-10.48,44.74-21.1,67.11-31.64,5.19-2.44,10.43-4.78,15.64-7.16,13.59-6.19,27.13-12.48,40.8-18.48,4.08-1.79,5.3-3.88,4-8.36-6.2-21.36-12.27-42.77-18-64.28-1.41-5.37-3.93-6.23-8.84-5.49C743.66,379.18,729.3,380.94,715,382.86Z"/><path class="cls-1" d="M296.22,677.34c7-1,14-2.08,20.95-3q25-3.43,50-6.77c13.75-1.81,27.52-3.41,41.27-5.23s27.45-3.86,41.19-5.71c13.41-1.81,26.85-3.46,40.26-5.25,14.89-2,29.84-3.64,44.61-6.27,5.19-.92,10-4.25,14.9-6.57q41.72-19.56,83.42-39.15,52.26-24.45,104.58-48.78l21.46-10c2.62,9.91,5.09,19.87,7.91,29.72,1.47,5.13,2,9.07-2.59,13.65-10.24,10.1-19.38,21.32-29.25,31.82C720,631.63,704.83,647.24,689.81,663q-18,18.94-36,38-19,20.07-38.1,40.11c-12,12.65-24.07,25.25-36,38-2.72,2.91-5.37,3.52-9.29,2.53Q442.1,749.31,313.66,717.36c-5.35-1.32-7.1-4.62-8.29-9.11q-3.57-13.44-7.28-26.84A26.56,26.56,0,0,0,296.22,677.34Z"/></svg>