<svg id="Layer_1" data-name="Layer 1" xmlns="http://www.w3.org/2000/svg" viewBox="0 0 1024 1024"><defs><style>.cls-1{fill:#f3c;}.cls-1,.cls-2{stroke:#000;stroke-miterlimit:10;stroke-width:2.5px;}.cls-2{fill:#3ff;}</style></defs><path class="cls-1" d="M248.33,449.22c-1.25-3.08-1.57-5.67,1.2-8.57q95-99.61,189.78-199.47c3.25-3.42,6-3.86,10.49-2.73q129.9,32.83,260,65.13c5.79,1.43,7.73,4.4,8.22,9.51,3.88,14,7.69,27.93,11.66,41.86,2.36,8.29,5,16.51,7.47,24.75a4.83,4.83,0,0,0-.08,1.5c5.83,20.87,11.73,41.72,17.53,62.6,2.74,9.85,5.31,19.76,8,29.64q-20.82,9.63-41.65,19.27-53.08,24.66-106.13,49.37c-23.47,11-46.85,22.13-70.33,33.08a48,48,0,0,1-11.8,4.17c-10.78,1.87-21.65,3.2-32.49,4.69-16,2.21-32,4.42-48.05,6.53-16.53,2.18-33.08,4.16-49.6,6.39-16.18,2.17-32.33,4.62-48.52,6.81-20.18,2.73-40.38,5.31-60.58,8a10.3,10.3,0,0,0-.13-2q-9.32-33.33-18.69-66.64c-2.46-8.64-5.16-17.21-7.75-25.82a21.05,21.05,0,0,0-.36-3.48Q257.41,481.49,248.33,449.22Z"/><path class="cls-1" d="M312.44,679.77,347.92,675c21.9-3,43.79-6,65.69-8.87,19.06-2.53,38.15-4.92,57.21-7.44q23.83-3.17,47.64-6.48c11-1.52,22.15-2.59,33-4.81,6-1.21,11.63-4.14,17.23-6.72,17.58-8.1,35-16.44,52.59-24.6q49-22.78,98-45.48c17.55-8.16,35-16.45,52.57-24.64,3.19-1.49,6.48-2.77,9.73-4.15,3.43,11.81,7,23.58,10.14,35.48.45,1.71-.88,4.51-2.27,6q-29.32,31.35-58.94,62.45-65.38,68.63-130.83,137.18c-2.71,2.84-5.09,3.88-9.2,2.84q-131-33.12-262-65.84c-3.87-1-5.61-2.89-6.59-6.51C318.85,702.13,315.6,691,312.44,679.77Z"/><path class="cls-2" d="M737.1,379.7c-2.5-8.24-5.11-16.46-7.47-24.75-4-13.93-7.78-27.9-11.66-41.86q39.48-5.35,79-10.72c29.52-4,59.1-7.58,88.57-11.88A454.79,454.79,0,0,1,961,285.72c4.16.09,5.85,1.43,6.94,5.38,12.55,45.42,25.3,90.79,37.85,136.2.35,1.25-.43,3.69-1.45,4.3C984.23,443.68,964.87,457,943,466c-11.4,4.67-22.39,10.36-33.57,15.59q-56.94,26.64-113.9,53.3c-4.7,2.2-9.32,4.6-14,6.92-3.25,1.38-6.54,2.66-9.73,4.15-17.53,8.19-35,16.48-52.57,24.64q-48.94,22.79-98,45.48c-17.54,8.16-35,16.5-52.59,24.6-5.6,2.58-11.27,5.51-17.23,6.72-10.88,2.22-22,3.29-33,4.81q-23.82,3.27-47.64,6.48c-19.06,2.52-38.15,4.91-57.21,7.44C391.71,669,369.82,672,347.92,675l-35.48,4.81q-37,4.85-74,9.71c-29.7,3.94-59.43,7.68-89.08,12-26,3.78-52,6.86-78.39,6.38-4.35-.08-8.71.53-13,.82C44.8,661.84,31.84,615.52,18.69,569.25c-1.32-4.66-.27-7,3.89-9.7,26.68-17.09,54.86-31.24,83.82-44,16.09-7.08,31.88-14.83,47.81-22.25q43.9-20.44,87.81-40.87c2.14-1,4.21-2.15,6.31-3.23q9.06,32.26,18.09,64.53a21.05,21.05,0,0,1,.36,3.48l-53.51,25c7,25,13.86,49.51,20.61,74.08.76,2.77,2.05,3.31,4.7,2.94,18.25-2.59,36.51-5,54.77-7.52,20.2-2.65,40.4-5.23,60.58-8,16.19-2.19,32.34-4.64,48.52-6.81,16.52-2.23,33.07-4.21,49.6-6.39,16-2.11,32-4.32,48.05-6.53,10.84-1.49,21.71-2.82,32.49-4.69a48,48,0,0,0,11.8-4.17c23.48-10.95,46.86-22.11,70.33-33.08q53-24.76,106.13-49.37,20.8-9.68,41.65-19.27c14.25-6.56,28.42-13.29,42.79-19.57,4.45-1.95,5-4.37,3.78-8.62-6.41-22.19-12.74-44.41-18.74-66.71-1.09-4-3.11-4.76-6.48-4.3-5.53.75-11,1.71-16.57,2.33C757.23,377.71,747.16,378.67,737.1,379.7Z"/></svg>