<svg id="Layer_1" data-name="Layer 1" xmlns="http://www.w3.org/2000/svg" viewBox="0 0 1024 1024"><defs><style>.cls-1{fill:#662d91;}.cls-1,.cls-2{stroke:#000;stroke-miterlimit:10;}.cls-2{fill:#01fefe;}</style></defs><path class="cls-1" d="M252.31,450.55c-.8-4.74,1.45-7.92,4.66-11.29,19.75-20.78,39.24-41.8,58.82-62.74,9.64-10.3,19.24-20.64,29-30.87,14.87-15.66,29.86-31.21,44.75-46.85q17.87-18.75,35.64-37.61c5.25-5.54,10.54-11.05,15.69-16.69,2.28-2.49,4.51-3.05,7.93-2.16q42.47,11.07,85,21.71c17,4.29,34.07,8.3,51.05,12.65,8.27,2.11,16.38,4.84,24.63,7,6.48,1.71,13.1,2.89,19.61,4.47,25.86,6.26,51.67,12.76,77.59,18.74,5.71,1.32,7.07,5,8.21,9.59a10.84,10.84,0,0,0-.07,3q8.32,30,16.81,59.94c.35,1.25,1.54,2.28,2.34,3.41a27.76,27.76,0,0,0,.5,3.89q9.67,35.65,19.44,71.28c1.45,5.26,3.35,10.4,5,15.6-5.22,2.38-10.45,4.72-15.64,7.16-22.38,10.54-44.71,21.16-67.11,31.64-38.57,18-77.4,35.51-115.67,54.15a161.65,161.65,0,0,1-55.67,15.88c-12.14,1.2-24.21,3.17-36.32,4.75-11,1.43-21.95,2.74-32.91,4.2s-21.9,3-32.86,4.53c-10.79,1.49-21.57,3-32.37,4.47q-17.12,2.31-34.23,4.53-17.43,2.28-34.85,4.51c-4.65.48-5.2-3-6.09-6.23Q284.07,563,272.81,522.74c-.45-1.6-1.81-3-2.74-4.41.33-1.52,1.25-3.2.89-4.54q-6.56-24.15-13.48-48.19C256,460.51,254.05,455.57,252.31,450.55Z"/><path class="cls-2" d="M734,382.86c-.8-1.13-2-2.16-2.34-3.41q-8.52-29.94-16.81-59.94a10.84,10.84,0,0,1,.07-3Q753,311.44,791,306.37c31.48-4.22,63-8.29,94.41-12.75a429.1,429.1,0,0,1,67.2-3.79c4.3.07,6,1.54,7.1,5.58,12.27,44.49,24.75,88.93,37,133.42.36,1.32-.52,3.91-1.62,4.57-19.75,11.82-38.83,24.77-60.25,33.74-16.06,6.73-31.63,14.66-47.43,22q-50.56,23.58-101.13,47.12c-2.86,1.34-5.64,2.86-8.45,4.29l-21.45,10Q704.09,575,651.8,599.35q-41.73,19.51-83.42,39.15c-4.93,2.32-9.7,5.65-14.89,6.57-14.78,2.63-29.72,4.29-44.61,6.27-13.42,1.79-26.86,3.44-40.27,5.25-13.74,1.85-27.45,3.89-41.19,5.71s-27.51,3.42-41.26,5.23q-25,3.3-50,6.77c-7,1-14,2-20.95,3-14.5,1.81-29,3.54-43.51,5.46q-47,6.19-93.89,12.54c-20.43,2.74-40.84,5.67-61.3,8.11-7.4.89-14.94.59-22.42.86q-12.47.45-24.91,1c-2.16.09-3.24-.25-4-2.93Q46.88,635.86,28.08,569.52c-1.26-4.46-1.9-7.68,3.31-10.53,15.25-8.36,29.72-18.27,45.31-25.89,32.05-15.67,64.63-30.24,97-45.28q22.8-10.59,45.58-21.25c9.17-4.28,18.37-8.51,27.52-12.83,1.92-.91,3.69-2.12,5.52-3.19,1.74,5,3.71,10,5.17,15.05q6.94,24,13.48,48.19c.36,1.34-.56,3-.89,4.54a11.75,11.75,0,0,0-2.41.55c-15.48,7.19-30.91,14.48-46.45,21.56-2.62,1.19-2.23,2.78-1.7,4.7,6.47,23.14,13,46.26,19.41,69.41.71,2.57,1.77,3.42,4.52,3,11.34-1.59,22.72-2.85,34.06-4.41,8-1.1,15.89-2.47,23.83-3.72q17.43-2.25,34.85-4.51,17.11-2.24,34.23-4.53c10.8-1.46,21.58-3,32.37-4.47,11-1.51,21.9-3.08,32.86-4.53s21.95-2.77,32.91-4.2c12.11-1.58,24.18-3.55,36.32-4.75a161.65,161.65,0,0,0,55.67-15.88c38.27-18.64,77.1-36.12,115.67-54.15,22.4-10.48,44.73-21.1,67.11-31.64,5.19-2.44,10.42-4.78,15.64-7.16,13.59-6.19,27.13-12.48,40.8-18.48,4.08-1.79,5.3-3.88,4-8.36-6.2-21.36-12.28-42.77-18-64.28-1.42-5.37-3.93-6.23-8.84-5.49C762.67,379.18,748.31,380.94,734,382.86Z"/><path class="cls-1" d="M315.23,677.34c7-1,14-2.08,20.95-3q25-3.43,50-6.77c13.75-1.81,27.52-3.41,41.26-5.23s27.45-3.86,41.19-5.71c13.41-1.81,26.85-3.46,40.27-5.25,14.89-2,29.83-3.64,44.61-6.27,5.19-.92,10-4.25,14.89-6.57q41.72-19.56,83.42-39.15,52.28-24.45,104.59-48.78l21.45-10c2.62,9.91,5.1,19.87,7.92,29.72,1.47,5.13,2,9.07-2.59,13.65-10.25,10.1-19.38,21.32-29.25,31.82C739,631.63,723.84,647.24,708.82,663c-12,12.63-24,25.32-36,38q-19,20.07-38.09,40.11c-12,12.65-24.07,25.25-36,38-2.72,2.91-5.37,3.52-9.28,2.53Q461.1,749.31,332.66,717.36c-5.34-1.32-7.09-4.62-8.29-9.11q-3.57-13.44-7.27-26.84A28.61,28.61,0,0,0,315.23,677.34Z"/></svg>