<svg width="2731" height="2731" viewBox="0 0 2731 2731" fill="none" xmlns="http://www.w3.org/2000/svg">
<mask id="mask0_2_32" style="mask-type:luminance" maskUnits="userSpaceOnUse" x="0" y="0" width="2731" height="2731">
<path d="M0 0H2730.67V2730.67H0V0Z" fill="white"/>
</mask>
<g mask="url(#mask0_2_32)">
<path d="M1547.6 1158.51C1613.93 1106.68 1692.51 1084.25 1776.77 1073.94C1780.51 1073.48 1780.31 1068.01 1776.55 1067.79C1732.52 1065.15 1688.63 1066.59 1645.07 1073.54C1590.46 1082.24 1535.5 1090.68 1486.6 1115.45C1484.24 1116.65 1480.69 1116.95 1477.89 1116.58C1456.75 1113.81 1435.65 1110.82 1414.21 1107.82C1411.76 1107.48 1410.72 1104.51 1412.42 1102.72C1449.83 1063.87 1466.71 1018.53 1470.98 969.156C1474.11 933.072 1473.47 896.384 1481.21 861.031C1499.12 779.174 1566.09 732.038 1663.7 724.886C1761.28 717.735 1847.87 744.112 1930.39 784.324C1996.08 816.332 2054.12 856.272 2103.51 905.499C2135.34 937.223 2146.98 973.183 2141.84 1013.85C2124.24 1152.79 2052.56 1266.89 1923.87 1353.87C1867.86 1391.71 1805.08 1415.72 1731.2 1413.3C1668.18 1411.23 1612.34 1381.69 1594.02 1335.95C1588.44 1322 1590.32 1305.21 1591.96 1289.96C1597.02 1242.84 1586.75 1200.11 1547.38 1163.18C1546.01 1161.9 1546.12 1159.67 1547.6 1158.51Z" fill="white"/>
<path d="M1312.84 1098.33C1316.24 1102.15 1314.1 1108.22 1309.05 1109.05C1290.26 1112.15 1271.44 1115.31 1252.52 1117.99C1248.02 1118.63 1242.36 1117.59 1238.3 1115.68C1137.74 1068.54 1029.47 1060.59 917.81 1069.6C916.843 1069.68 915.932 1070.26 913.43 1071.18C1010.8 1079.09 1101.25 1098.87 1174.48 1156.74C1177.52 1159.14 1177.8 1163.68 1175.05 1166.41C1134.68 1206.6 1131.78 1253.99 1137.7 1303.53C1138.81 1312.78 1137.98 1323.36 1133.74 1331.75C1103.79 1391.05 1037.2 1419.93 957.502 1411.47C904.68 1405.85 858.931 1386.98 817.419 1360.6C675.358 1270.33 599.244 1149.3 587.978 998.766C585.527 966.025 597.269 936.617 621.47 911.758C714.155 816.554 830.515 753.204 973.582 728.345C1023.95 719.594 1074.9 721.568 1123.98 737.049C1203.04 761.989 1244.48 811.608 1252.05 881.9C1255.35 912.502 1253.86 943.462 1256.56 974.132C1260.71 1021.09 1281.12 1062.7 1312.84 1098.33Z" fill="white"/>
<path d="M1619.07 680.128C1575.54 693.764 1538.19 713.043 1506.42 739.148C1448.78 786.515 1429.6 844.532 1426.44 907.444C1424.68 942.279 1424.68 977.371 1418.66 1011.79C1415.25 1031.3 1403.95 1050.86 1391.31 1068.24C1378.05 1086.49 1356.62 1085.75 1339.22 1069.47C1313.72 1045.59 1307.65 1016.55 1305.03 987.091C1301.96 952.723 1301.83 918.192 1298.56 883.841C1289.66 790.68 1233.19 722.367 1122.22 683.215C1118.74 681.987 1115.36 680.584 1111.98 679.192C1111.04 678.807 1110.28 678.165 1108.15 676.84C1115.79 647.692 1129.68 619.735 1146.83 592.697C1191.32 522.523 1255.86 466.896 1343.87 428.047C1358.21 421.713 1369.95 421.155 1384.59 427.777C1501.99 480.865 1578.11 558.463 1614.78 659.832C1615.38 661.468 1615.99 663.113 1616.32 664.788C1617.23 669.399 1617.99 674.027 1619.07 680.128Z" fill="white"/>
<path d="M1550.24 1394.53C1590.11 1458.18 1625.73 1498.67 1697.8 1515.15C1711.76 1518.34 1719.05 1499.28 1706.65 1492.12C1695.28 1485.55 1684.43 1478.37 1674.16 1470.59C1666.83 1465.04 1659.64 1459.37 1652.56 1453.61C1641.87 1444.91 1651.12 1427.85 1664.23 1432.05C1729.49 1452.96 1797.66 1451.96 1869.67 1426.87C1875.11 1424.97 1881.16 1427.01 1884.29 1431.85C1914.51 1478.61 1935.32 1527.54 1937.89 1580.79C1938.58 1595.24 1938.45 1609.75 1937.54 1624.19C1936.34 1643.17 1930.36 1649.15 1907.02 1653.08C1841.35 1664.15 1776.33 1661.77 1712.75 1644.27C1592.69 1611.24 1500.43 1549.78 1429.92 1466.65C1427.05 1463.27 1426.38 1455.36 1429.25 1452.73C1447.78 1435.79 1470.85 1432.43 1492.78 1423C1499.3 1420.2 1545.1 1386.33 1550.24 1394.53Z" fill="white"/>
<path d="M1295.01 1441.34C1302.46 1448.26 1303.09 1459.86 1296.41 1467.53C1237.52 1535.14 1165.54 1591.74 1069.13 1626.17C997.131 1651.88 921.49 1660.53 843.118 1650.67C836.311 1649.82 829.673 1648.12 822.933 1646.9C808.007 1644.2 800.569 1636.76 799.159 1624.55C793.899 1579.01 799.706 1534.3 817.627 1491.03C825.929 1470.98 836.613 1451.57 847.255 1431.34C851.634 1423.02 861.466 1419.25 870.327 1422.4C929.793 1443.52 986.298 1446.66 1040.63 1434.37C1060.6 1429.85 1072.27 1456.18 1055.62 1468.1C1055.04 1468.52 1054.45 1468.94 1053.86 1469.36C1035.77 1482.17 1051.05 1510.4 1071.66 1502.24C1126.6 1480.51 1139.55 1427.64 1173.27 1380.72C1179.92 1371.46 1203.04 1379.2 1211.39 1386.96C1228.96 1403.29 1276.78 1424.4 1295.01 1441.34Z" fill="white"/>
<path d="M1308.57 1358.97C1312.12 1366.51 1305.07 1374.62 1297.12 1372.1C1250.64 1357.37 1212.82 1319.02 1204.16 1276.11C1193.51 1223.32 1222.86 1170.08 1270.37 1149.29C1278.04 1145.94 1285.93 1153.68 1282.86 1161.47C1255.91 1229.93 1278.49 1294.66 1308.49 1358.79C1308.52 1358.85 1308.54 1358.91 1308.57 1358.97Z" fill="white"/>
<path d="M1452.33 1182.52C1447.76 1165.29 1467.93 1152.19 1481.77 1163.42C1509.04 1185.54 1526.29 1221.53 1525.15 1260.11C1523.86 1304.19 1495.01 1344.32 1454.41 1363.91C1438.99 1371.34 1422.62 1355.77 1429.33 1340.03C1451.06 1289.06 1466.91 1237.47 1452.33 1182.52Z" fill="white"/>
<path d="M1342.57 1663.64C1326.99 1652.91 1313.48 1643.4 1299.7 1634.28C1296.25 1631.99 1292.01 1629.91 1288.04 1629.72C1284.36 1629.54 1279.03 1630.98 1277.22 1633.62C1275.4 1636.27 1275.48 1642.43 1277.42 1645.03C1282.04 1651.2 1288.01 1656.45 1293.88 1661.54C1304.22 1670.51 1315.13 1678.82 1325.33 1687.93C1330.05 1692.16 1333.65 1697.63 1339.55 1704.68C1334.49 1704.68 1332.12 1704.97 1329.85 1704.64C1285.24 1698.14 1255.43 1673.62 1241.16 1630.84C1237.57 1620.07 1235.31 1608.84 1232.84 1597.72C1231.61 1592.15 1233.36 1588.46 1240.16 1587.92C1279.77 1584.75 1328.05 1616.23 1340.02 1653.34C1340.97 1656.26 1341.51 1659.32 1342.57 1663.64Z" fill="white"/>
<path d="M1410.15 1696.71C1417.43 1690.35 1424.67 1683.95 1431.99 1677.64C1444.08 1667.23 1456.42 1657.11 1468.23 1646.39C1473.13 1641.94 1477.29 1636.04 1471.8 1629.29C1466.5 1622.78 1459.76 1625.06 1454.11 1628.58C1441.43 1636.49 1429.11 1645 1416.7 1653.35C1414.08 1655.11 1411.68 1657.19 1409.18 1659.13C1408.25 1658.59 1407.32 1658.05 1406.39 1657.51C1410.63 1648.36 1413.71 1638.41 1419.32 1630.19C1440.76 1598.81 1473.24 1587.74 1509.08 1583.73C1514.78 1583.09 1517.32 1586.55 1517.45 1592.06C1518.6 1640.34 1473.52 1693.63 1425.9 1700.13C1421.53 1700.73 1417.07 1700.6 1412.65 1700.82C1411.81 1699.45 1410.98 1698.08 1410.15 1696.71Z" fill="white"/>
<path d="M1365.67 1272.4C1364.98 1272.68 1364.26 1272.86 1363.52 1272.88C1355.86 1273.16 1351.97 1260.29 1348.75 1255.3C1338.52 1239.45 1317.19 1231.06 1313.36 1211.27C1311.39 1201.1 1315.54 1188.7 1323.19 1181.73C1332.95 1172.83 1348.15 1178.16 1358.35 1185.32C1360.86 1187.08 1364.27 1186.78 1366.45 1184.62C1369.29 1181.81 1372.86 1178.57 1373.47 1178.12C1378 1174.78 1383.12 1172.63 1388.71 1171.9C1398.82 1170.58 1410.04 1174.48 1412.95 1185.19C1417.51 1201.94 1409.46 1218.91 1400.47 1232.66C1392.06 1245.53 1381.23 1262.16 1368.33 1270.91C1367.49 1271.48 1366.6 1272.03 1365.67 1272.4ZM1338.57 1492.19C1335.93 1487.44 1336.5 1479.38 1337.25 1474.26C1337.54 1472.3 1338.25 1470.03 1340.14 1469.44C1341.96 1468.86 1343.77 1470.18 1345.43 1471.13C1352.17 1474.98 1360.8 1473.1 1367.67 1469.5C1374.55 1465.9 1380.55 1460.72 1387.67 1457.64C1388.81 1457.14 1390.13 1456.7 1391.28 1457.18C1393.13 1457.95 1393.34 1460.44 1393.26 1462.45C1392.94 1470.47 1392.62 1478.49 1392.34 1486.51C1388.41 1597.02 1391.05 1707.65 1393.69 1818.19C1393.79 1822.46 1394 1827.04 1396.6 1830.43C1399.2 1833.81 1405.13 1834.87 1407.53 1831.33C1408.18 1830.37 1408.63 1829.07 1409.75 1828.73C1411.34 1828.24 1412.6 1830.07 1413.26 1831.6C1414.99 1835.6 1416.76 1839.75 1416.71 1844.11C1416.67 1848.48 1414.3 1853.13 1410.14 1854.44C1408.01 1855.1 1405.72 1854.83 1403.51 1854.59C1389.4 1853.05 1375.14 1852.89 1361.01 1854.11C1357.6 1854.4 1354.07 1854.82 1351.17 1856.62C1346.58 1859.46 1343.45 1865.65 1338.06 1865.36C1332.24 1865.06 1330.05 1856.82 1332.77 1851.66C1335.48 1846.5 1340.87 1843.44 1345.18 1839.52C1360.2 1825.81 1361.14 1802.88 1360.99 1782.54C1360.73 1744.1 1360.46 1705.66 1360.19 1667.22C1359.93 1628.77 1359.66 1590.33 1359.39 1551.89C1359.33 1542.66 1359.26 1533.44 1359.2 1524.21C1359.18 1520.7 1358.39 1517.48 1358.33 1513.97C1358.26 1510.31 1358.38 1506.26 1357.05 1502.79" fill="white"/>
</g>
</svg>
