<?xml version="1.0" standalone="no"?>
<!DOCTYPE svg PUBLIC "-//W3C//DTD SVG 20010904//EN"
 "http://www.w3.org/TR/2001/REC-SVG-20010904/DTD/svg10.dtd">
<svg version="1.0" xmlns="http://www.w3.org/2000/svg"
 width="700.000000pt" height="700.000000pt" viewBox="0 0 700.000000 700.000000"
 preserveAspectRatio="xMidYMid meet">
<metadata>
Created by potrace 1.14, written by Peter Selinger 2001-2017
</metadata>
<g transform="translate(0.000000,700.000000) scale(0.100000,-0.100000)"
fill="#000000" stroke="none">
<path d="M2725 5033 c-743 -782 -1005 -1067 -1005 -1089 0 -18 -14 -29 -67
-55 -120 -56 -511 -238 -768 -356 -137 -64 -297 -139 -355 -169 -138 -70 -331
-185 -343 -206 -8 -12 -1 -50 25 -145 189 -680 232 -829 242 -835 13 -9 265 0
376 12 47 6 337 44 645 85 756 100 673 92 684 64 6 -13 22 -68 37 -122 19 -69
33 -103 48 -112 24 -15 1772 -455 1810 -455 25 0 13 -12 741 755 550 579 585
619 585 656 0 17 -12 78 -27 134 -15 57 -25 106 -22 109 5 6 712 337 989 463
184 84 488 256 497 281 5 12 -241 918 -258 954 -5 9 -26 19 -48 23 -80 13
-406 -19 -1001 -99 l-615 -82 -17 27 c-20 33 3 26 -438 133 -190 46 -576 143
-858 215 -282 72 -523 131 -535 131 -16 0 -106 -89 -322 -317z m2699 -862 c47
-164 66 -248 60 -258 -5 -8 -72 -42 -149 -77 -101 -46 -142 -60 -147 -51 -6
10 -73 250 -157 561 l-9 31 142 21 c77 11 152 19 166 18 24 -1 28 -12 94 -245z
m-3560 -768 c27 -87 158 -565 154 -568 -3 -3 -151 -24 -306 -44 -59 -7 -64 -6
-72 13 -8 21 -131 464 -134 480 -1 8 317 165 336 166 3 0 13 -21 22 -47z"/>
</g>
</svg>
