<?xml version="1.0" standalone="no"?>
<!DOCTYPE svg PUBLIC "-//W3C//DTD SVG 20010904//EN"
 "http://www.w3.org/TR/2001/REC-SVG-20010904/DTD/svg10.dtd">
<svg version="1.0" xmlns="http://www.w3.org/2000/svg"
 width="700.000000pt" height="700.000000pt" viewBox="0 0 700.000000 700.000000"
 preserveAspectRatio="xMidYMid meet">
<metadata>
Created by potrace 1.14, written by Peter Selinger 2001-2017
</metadata>
<g transform="translate(0.000000,700.000000) scale(0.100000,-0.100000)"
fill="#000000" stroke="none">
<path d="M2989 5347 c-30 -30 -291 -303 -380 -398 -19 -20 -101 -107 -184
-194 -82 -86 -170 -178 -195 -204 -149 -157 -370 -389 -400 -420 -126 -131
-151 -162 -146 -179 5 -15 -8 -25 -71 -55 -43 -20 -123 -57 -178 -83 -55 -25
-131 -61 -170 -79 -38 -18 -115 -54 -170 -80 -55 -26 -125 -58 -155 -72 -30
-14 -84 -39 -120 -55 -36 -17 -113 -52 -172 -79 -239 -109 -505 -260 -524
-297 -11 -22 8 -101 81 -347 14 -50 164 -581 169 -600 1 -5 6 -21 10 -34 l8
-24 185 7 c102 3 188 8 191 10 4 2 39 6 77 10 39 4 81 8 95 11 14 2 48 6 75 9
28 4 61 8 75 11 30 5 76 12 145 20 28 4 61 8 75 11 14 2 48 6 75 9 28 4 61 8
75 10 25 4 204 27 309 40 30 4 63 9 75 11 12 2 48 7 81 10 33 3 78 9 100 13
22 4 55 7 74 7 l33 -1 29 -105 c43 -154 41 -151 149 -175 8 -2 159 -40 335
-85 176 -45 327 -83 335 -85 8 -2 53 -13 100 -25 47 -12 110 -27 140 -35 30
-7 226 -56 435 -109 210 -53 391 -96 404 -96 16 0 45 22 90 68 84 87 388 405
436 457 21 22 117 123 215 225 97 102 188 197 201 211 13 15 85 91 160 170
237 250 249 263 254 280 6 17 -1 52 -30 149 -9 30 -18 63 -20 73 -2 9 -7 22
-10 27 -7 11 38 33 620 305 121 57 273 128 337 159 64 31 120 56 123 56 31 0
407 216 436 250 18 21 23 1 -97 425 -25 88 -47 167 -49 175 -6 30 -78 286 -95
340 -13 42 -22 55 -41 60 -60 16 -443 -7 -584 -34 -11 -2 -63 -9 -115 -16 -52
-7 -103 -14 -113 -16 -10 -2 -45 -6 -78 -9 -33 -4 -70 -8 -82 -11 -12 -2 -58
-9 -102 -14 -44 -6 -96 -12 -115 -15 -19 -2 -57 -7 -85 -10 -27 -4 -57 -8 -65
-10 -8 -2 -37 -7 -65 -10 -27 -3 -59 -7 -70 -9 -11 -2 -45 -7 -75 -10 -30 -4
-72 -9 -92 -12 -30 -5 -38 -2 -38 10 0 8 -11 23 -24 32 -14 8 -186 56 -383
105 -197 49 -374 93 -393 99 -127 36 -1043 260 -1063 260 -14 0 -38 -14 -58
-33z m2405 -934 c5 -19 45 -163 70 -254 8 -30 26 -93 39 -140 14 -47 22 -91
18 -96 -10 -17 -294 -144 -302 -136 -5 6 -41 133 -64 223 -2 8 -27 97 -55 198
-29 101 -50 185 -48 188 3 2 36 6 74 9 38 3 92 9 119 13 103 16 143 14 149 -5z
m-3554 -1030 c88 -292 155 -549 146 -554 -6 -4 -33 -10 -61 -13 -27 -4 -63 -9
-80 -12 -16 -2 -46 -6 -65 -8 -75 -9 -135 -18 -140 -21 -19 -12 -39 39 -101
259 -38 136 -69 249 -69 251 0 2 46 26 102 52 56 26 132 62 168 80 36 17 68
32 72 32 4 1 17 -29 28 -66z"/>
</g>
</svg>
